<svg width="45" height="14" viewBox="0 0 45 14" fill="none" xmlns="http://www.w3.org/2000/svg">
<g filter="url(#filter0_d_2903_213)">
<path d="M4.70795 3.42167L7.02739 5.68633L9.29205 3.3669L6.97261 1.10224L4.70795 3.42167ZM40.2841 3.27736C40.4373 3.12047 40.4343 2.86911 40.2774 2.71593L37.7207 0.219659C37.5638 0.066475 37.3125 0.0694783 37.1593 0.226367C37.0061 0.383255 37.0091 0.634618 37.166 0.787801L39.4386 3.00671L37.2197 5.27928C37.0665 5.43617 37.0695 5.68753 37.2264 5.84071C37.3833 5.9939 37.6346 5.99089 37.7878 5.83401L40.2841 3.27736ZM7 3.39429L7.00474 3.79128L40.0047 3.39699L40 3L39.9953 2.60301L6.99526 2.99729L7 3.39429Z" fill="#F3A8ED"/>
</g>
<defs>
<filter id="filter0_d_2903_213" x="0.707947" y="0.106689" width="43.6891" height="13.8469" filterUnits="userSpaceOnUse" color-interpolation-filters="sRGB">
<feFlood flood-opacity="0" result="BackgroundImageFix"/>
<feColorMatrix in="SourceAlpha" type="matrix" values="0 0 0 0 0 0 0 0 0 0 0 0 0 0 0 0 0 0 127 0" result="hardAlpha"/>
<feOffset dy="4"/>
<feGaussianBlur stdDeviation="2"/>
<feComposite in2="hardAlpha" operator="out"/>
<feColorMatrix type="matrix" values="0 0 0 0 0 0 0 0 0 0 0 0 0 0 0 0 0 0 0.25 0"/>
<feBlend mode="normal" in2="BackgroundImageFix" result="effect1_dropShadow_2903_213"/>
<feBlend mode="normal" in="SourceGraphic" in2="effect1_dropShadow_2903_213" result="shape"/>
</filter>
</defs>
</svg>
